<svg width="16" height="14" viewBox="0 0 16 14" fill="#000" xmlns="http://www.w3.org/2000/svg">
<path d="M6.86001 2.07335L1.21335 11.5C1.09693 11.7016 1.03533 11.9302 1.03467 12.163C1.03402 12.3958 1.09434 12.6248 1.20963 12.827C1.32492 13.0293 1.49116 13.1978 1.69182 13.3159C1.89247 13.434 2.12055 13.4975 2.35335 13.5H13.6467C13.8795 13.4975 14.1076 13.434 14.3082 13.3159C14.5089 13.1978 14.6751 13.0293 14.7904 12.827C14.9057 12.6248 14.966 12.3958 14.9654 12.163C14.9647 11.9302 14.9031 11.7016 14.7867 11.5L9.14001 2.07335C9.02117 1.87742 8.85383 1.71543 8.65414 1.603C8.45446 1.49058 8.22917 1.43152 8.00001 1.43152C7.77086 1.43152 7.54557 1.49058 7.34588 1.603C7.1462 1.71543 6.97886 1.87742 6.86001 2.07335V2.07335Z" stroke="#D8001E" stroke-linecap="round" stroke-linejoin="round"/>
</svg>
