<svg width="16" height="17" viewBox="0 0 16 17" fill="none" xmlns="http://www.w3.org/2000/svg">
<path d="M6.85953 3.07347L1.21286 12.5001C1.09644 12.7018 1.03484 12.9303 1.03418 13.1631C1.03353 13.396 1.09385 13.6249 1.20914 13.8272C1.32443 14.0294 1.49068 14.198 1.69133 14.316C1.89199 14.4341 2.12006 14.4976 2.35286 14.5001H13.6462C13.879 14.4976 14.1071 14.4341 14.3077 14.316C14.5084 14.198 14.6746 14.0294 14.7899 13.8272C14.9052 13.6249 14.9655 13.396 14.9649 13.1631C14.9642 12.9303 14.9026 12.7018 14.7862 12.5001L9.13953 3.07347C9.02068 2.87754 8.85334 2.71555 8.65366 2.60313C8.45397 2.4907 8.22868 2.43164 7.99953 2.43164C7.77037 2.43164 7.54508 2.4907 7.3454 2.60313C7.14571 2.71555 6.97837 2.87754 6.85953 3.07347V3.07347Z" stroke="#B00009" stroke-linecap="round" stroke-linejoin="round"/>
<path d="M8 6.5V9.16667" stroke="#B00009" stroke-linecap="round" stroke-linejoin="round"/>
<path d="M8 11.833H8.00667" stroke="#B00009" stroke-linecap="round" stroke-linejoin="round"/>
</svg>
