<svg width="32" height="33" viewBox="0 0 32 33" fill="none" xmlns="http://www.w3.org/2000/svg">
<rect y="0.5" width="32" height="32" rx="16" fill="#EBE4F4"/>
<path d="M19.6667 22.8333C20.5871 22.8333 21.3333 22.0871 21.3333 21.1667C21.3333 20.2462 20.5871 19.5 19.6667 19.5C18.7462 19.5 18 20.2462 18 21.1667C18 22.0871 18.7462 22.8333 19.6667 22.8333Z" stroke="#5525A5" stroke-linecap="round" stroke-linejoin="round"/>
<path d="M11.6667 22.8333C12.5871 22.8333 13.3333 22.0871 13.3333 21.1667C13.3333 20.2462 12.5871 19.5 11.6667 19.5C10.7462 19.5 10 20.2462 10 21.1667C10 22.0871 10.7462 22.8333 11.6667 22.8333Z" stroke="#5525A5" stroke-linecap="round" stroke-linejoin="round"/>
<path d="M12.5 11.5C12.5 11.7761 12.7239 12 13 12H15C15.2761 12 15.5 11.7761 15.5 11.5C15.5 10.6716 14.8284 10 14 10C13.1716 10 12.5 10.6716 12.5 11.5Z" stroke="#5525A5" stroke-linecap="round" stroke-linejoin="round"/>
<path d="M23 17H16.5V13.5H19.5" stroke="#5525A5" stroke-linecap="round" stroke-linejoin="round"/>
<circle cx="13" cy="15.5" r="1.5" stroke="#5525A5"/>
<path d="M9.5 21.5H9V14C9 12.8954 9.89543 12 11 12H18C18.5523 12 19 12.4477 19 13V13.5H20.5L23 17V21.5H21.5" stroke="#5525A5" stroke-linecap="round" stroke-linejoin="round"/>
<path d="M13.5 21.5L18 21.5" stroke="#5525A5" stroke-linecap="round" stroke-linejoin="round"/>
</svg>
