<svg width="360" height="200" viewBox="0 0 360 200" fill="none" xmlns="http://www.w3.org/2000/svg">
<path opacity="0.18" d="M474.052 175.456C473.53 177.122 472.945 178.762 472.335 180.39C467.184 194.049 459.274 207.097 447.51 215.746C434.271 225.424 417.432 228.807 401.064 230.447C380.767 232.482 360.304 232.304 340.044 229.926C319.123 227.484 298.52 222.702 277.523 220.96C203.989 214.868 130.76 246.383 57.5304 237.366C-0.755356 230.206 -54.2338 196.936 -91.3826 151.482C-94.6383 147.514 -97.7669 143.432 -100.794 139.273C-114.122 121.112 -124.284 100.827 -130.846 79.2833C-132.576 73.4077 -133.949 67.4303 -134.967 61.3767C-137.993 43.8896 -137.637 25.9829 -133.924 8.62311C-99.8399 -2.98826 -59.8805 -2.47956 -24.792 10.3654C15.0147 24.9146 42.9431 64.9631 84.4541 73.7256C130.594 83.4039 176.785 51.1006 223.676 56.3149C245.144 58.655 265.365 68.842 286.96 69.7068C318.131 70.9659 346.314 53.0211 373.886 38.4592C399.64 24.9147 430.57 13.7611 457.404 23.4012C459.147 28.2594 460.889 33.0795 462.555 38.014C465.124 45.5175 467.591 53.0465 469.817 60.6517C480.843 97.9022 486.248 138.676 474.077 175.443L474.052 175.456Z" fill="#CBBDE3"/>
<path opacity="0.18" d="M469.846 194.434C469.324 196.1 468.739 197.74 468.129 199.368C462.978 213.027 455.068 226.076 443.304 234.724C430.064 244.402 413.226 247.785 396.858 249.425C376.56 251.46 356.097 251.282 335.838 248.904C314.917 246.462 294.314 241.68 273.317 239.938C199.783 233.846 126.553 265.361 53.3242 256.344C-4.9616 249.184 -58.4401 215.914 -95.5888 170.46C-98.8446 166.493 -101.973 162.41 -105 158.251C-76.6901 148.09 -46.0147 138.857 -38.117 136.478C49.3308 110.076 141.217 95.0311 232.213 103.247C317.944 110.992 403.013 140.459 469.858 194.408L469.846 194.434Z" fill="#CBBDE3"/>
</svg>
