<svg width="48" height="48" viewBox="0 0 48 48" fill="none" xmlns="http://www.w3.org/2000/svg">
<g clip-path="url(#clip0_8666_4732)">
<path d="M48.0098 24.0004C48.0098 27.1926 47.3731 30.3528 46.1368 33.2959C44.9005 36.2389 43.0894 38.9058 40.8097 41.1404L40.7198 41.2204C40.3598 41.5804 39.9798 41.9204 39.5998 42.2204C38.8338 42.872 38.029 43.4764 37.1898 44.0304C33.2753 46.6027 28.6937 47.9733 24.0098 47.9733C19.3258 47.9733 14.7442 46.6027 10.8298 44.0304C9.99203 43.4788 9.19038 42.8742 8.42974 42.2204C8.03974 41.8904 7.65973 41.5504 7.29973 41.2204L7.20977 41.1404C4.38394 38.3705 2.28678 34.945 1.10503 31.1686C-0.076712 27.3922 -0.306357 23.3822 0.436453 19.4956C1.17926 15.609 2.87147 11.9664 5.36254 8.89198C7.85361 5.81756 11.0662 3.40673 14.7143 1.87416C18.3625 0.341596 22.3329 -0.265156 26.2722 0.107864C30.2115 0.480884 33.9975 1.82209 37.2931 4.01216C40.5888 6.20223 43.2918 9.17319 45.1615 12.6605C47.0312 16.1479 48.0097 20.0434 48.0098 24.0004Z" fill="#E7EAEE"/>
<path d="M40.71 41.2204C40.35 41.5804 39.97 41.9204 39.59 42.2204C38.8241 42.8719 38.0192 43.4764 37.18 44.0303C33.2655 46.6026 28.684 47.9732 24 47.9732C19.316 47.9732 14.7345 46.6026 10.82 44.0303C9.98228 43.4787 9.18062 42.8742 8.41998 42.2204C8.02998 41.8904 7.65004 41.5504 7.29004 41.2204C7.73882 39.8141 8.51765 38.5356 9.56146 37.4918C10.6053 36.448 11.8837 35.6691 13.29 35.2204L20.4 32.9704V31.8303C19.51 31.3003 18.71 30.7003 18.05 30.2503C17.4472 29.8438 16.9341 29.3183 16.542 28.7061C16.1499 28.0938 15.8872 27.4078 15.77 26.6903L15.39 24.4204C14.9003 24.415 14.4271 24.2426 14.0486 23.9318C13.6702 23.6209 13.4093 23.1902 13.309 22.7108C13.2087 22.2315 13.275 21.7322 13.4971 21.2957C13.7191 20.8592 14.0835 20.5115 14.53 20.3103C13.8638 18.741 13.3806 17.1003 13.09 15.4204C12.8399 14.3548 12.8399 13.2458 13.09 12.1803C13.1927 11.6684 13.4518 11.2011 13.8315 10.8428C14.2113 10.4845 14.693 10.253 15.21 10.1803H15.34C15.9661 9.24859 16.8789 8.54643 17.94 8.18032C18.9655 7.85254 20.0263 7.64778 21.1 7.57033L22.35 7.43032C24.3527 7.16818 26.3866 7.27666 28.35 7.75032C29.3783 8.00439 30.3432 8.46763 31.1845 9.1111C32.0258 9.75457 32.7255 10.5645 33.24 11.4903C33.9935 13.12 34.2575 14.9335 34 16.7103C33.8453 17.8856 33.5945 19.0461 33.25 20.1803C33.7291 20.3478 34.1331 20.6801 34.3898 21.1179C34.6466 21.5557 34.7393 22.0704 34.6516 22.5703C34.5639 23.0702 34.3014 23.5227 33.9109 23.8469C33.5205 24.1711 33.0275 24.346 32.52 24.3403L32.14 26.6104C32.0229 27.3279 31.7601 28.0138 31.368 28.6261C30.9759 29.2383 30.4627 29.7638 29.86 30.1704C29.2 30.6204 28.41 31.2203 27.52 31.7503V32.9204L34.62 35.1704C36.0485 35.6116 37.3487 36.3925 38.4093 37.4461C39.4699 38.4998 40.2594 39.7948 40.71 41.2204Z" fill="#D0D5DD"/>
</g>
<defs>
<clipPath id="clip0_8666_4732">
<rect width="48" height="48" fill="white"/>
</clipPath>
</defs>
</svg>
