<svg width="64" height="64" viewBox="0 0 64 64" fill="none" xmlns="http://www.w3.org/2000/svg">
<rect width="64" height="64" rx="32" fill="#FFE8ED"/>
<path d="M29.72 21.1469L18.4267 40.0003C18.1939 40.4035 18.0707 40.8607 18.0693 41.3263C18.068 41.7919 18.1887 42.2498 18.4193 42.6543C18.6498 43.0588 18.9823 43.3959 19.3836 43.6321C19.7849 43.8682 20.2411 43.9952 20.7067 44.0003H43.2934C43.759 43.9952 44.2151 43.8682 44.6164 43.6321C45.0177 43.3959 45.3502 43.0588 45.5808 42.6543C45.8114 42.2498 45.932 41.7919 45.9307 41.3263C45.9294 40.8607 45.8062 40.4035 45.5734 40.0003L34.28 21.1469C34.0423 20.7551 33.7077 20.4311 33.3083 20.2063C32.9089 19.9814 32.4583 19.8633 32 19.8633C31.5417 19.8633 31.0911 19.9814 30.6918 20.2063C30.2924 20.4311 29.9577 20.7551 29.72 21.1469V21.1469Z" stroke="#F81D23" stroke-width="2" stroke-linecap="round" stroke-linejoin="round"/>
<path d="M32 28V33.3333" stroke="#F81D23" stroke-width="2" stroke-linecap="round" stroke-linejoin="round"/>
<path d="M32 38.666H32.0133" stroke="#F81D23" stroke-width="2" stroke-linecap="round" stroke-linejoin="round"/>
</svg>
