<svg width="156" height="48" viewBox="0 0 156 48" fill="none" xmlns="http://www.w3.org/2000/svg">
<g clip-path="url(#clip0_54_9515)">
<path d="M43.9279 25.1248L42.0091 23.1993L25.5157 6.64811L26.6291 5.5308C28.4941 3.65674 30.9636 2.51105 33.5944 2.29935C36.2251 2.08766 38.845 2.82382 40.9837 4.37572C43.1224 5.92761 44.6399 8.19363 45.2638 10.767C45.8878 13.3405 45.5773 16.0528 44.3881 18.4172C44.0729 19.0417 43.7001 19.6352 43.2747 20.19C43.1845 20.3079 43.1184 20.4424 43.08 20.5859C43.0417 20.7295 43.0319 20.8792 43.0512 21.0265C43.0705 21.1738 43.1185 21.3159 43.1925 21.4446C43.2665 21.5733 43.3651 21.6861 43.4825 21.7766C43.6 21.8671 43.7341 21.9335 43.8771 21.972C44.0201 22.0104 44.1693 22.0203 44.3161 22.0009C44.4629 21.9815 44.6045 21.9334 44.7327 21.8591C44.861 21.7848 44.9734 21.6859 45.0636 21.568C47.112 18.8665 48.063 15.4857 47.7247 12.1081C47.3863 8.73039 45.7838 5.60725 43.2405 3.36888C40.6973 1.13051 37.4026 -0.0564235 34.0213 0.0475883C30.6401 0.1516 27.424 1.53881 25.0221 3.9293L6.60623 22.4097L5.49281 21.2924C3.62844 19.4199 2.48947 16.9423 2.27999 14.3036C2.07051 11.665 2.80421 9.03767 4.34961 6.89252C5.89502 4.74736 8.15113 3.22455 10.7137 2.59694C13.2763 1.96933 15.9778 2.27794 18.3342 3.46748C18.9558 3.78295 19.5461 4.15707 20.0971 4.5848C20.2578 4.71582 20.4517 4.7993 20.657 4.82585C20.8624 4.85239 21.071 4.82095 21.2596 4.73507C21.4481 4.64918 21.609 4.51224 21.7242 4.33964C21.8395 4.16704 21.9045 3.96561 21.912 3.75798V3.64625C21.9068 3.47943 21.8644 3.31589 21.788 3.16766C21.7116 3.01942 21.603 2.89025 21.4703 2.78964C21.0542 2.47005 20.6205 2.17413 20.1713 1.90324C19.9004 1.74309 19.6221 1.59411 19.3437 1.45258C18.8853 1.21238 18.4132 0.999715 17.9297 0.815711C15.8155 0.0461103 13.5423 -0.176756 11.3197 0.16767C8.87137 0.537081 6.57512 1.5873 4.69117 3.19932C4.42395 3.43023 4.16414 3.67232 3.91176 3.92558C1.40855 6.43971 0.00244141 9.8483 0.00244141 13.4023C0.00244141 16.9563 1.40855 20.3649 3.91176 22.879L6.13859 25.1137L22.324 41.3595L21.2105 42.4768C19.3433 44.3419 16.8759 45.4797 14.2494 45.6869C11.623 45.8941 9.00874 45.1572 6.874 43.6078C4.73927 42.0585 3.22323 39.7978 2.59692 37.2298C1.97061 34.6618 2.27486 31.954 3.45527 29.5904C3.77047 28.9659 4.14324 28.3724 4.56868 27.8176C4.75078 27.5795 4.8312 27.2786 4.79222 26.9811C4.75324 26.6835 4.59807 26.4137 4.36085 26.231C4.12363 26.0482 3.82379 25.9675 3.52728 26.0067C3.23078 26.0458 2.96189 26.2015 2.77979 26.4395C2.26815 27.1075 1.82197 27.8234 1.44742 28.5773C0.201191 31.0693 -0.239904 33.8891 0.185541 36.6444C0.561796 39.0911 1.60575 41.3855 3.20172 43.2733C4.79769 45.1612 6.88336 46.5687 9.2276 47.34C11.5718 48.1113 14.0831 48.2162 16.4831 47.6432C18.8831 47.0701 21.0782 45.8414 22.825 44.0932L24.5693 42.339C24.6398 42.2934 24.7057 42.241 24.766 42.1826C24.8251 42.1227 24.8774 42.0565 24.9219 41.9852L41.252 25.5978L42.3654 26.7151C44.2329 28.5866 45.3746 31.0648 45.5856 33.7048C45.7965 36.3448 45.0629 38.9738 43.5165 41.12C41.97 43.2662 39.7119 44.789 37.1475 45.4152C34.583 46.0413 31.8802 45.7297 29.524 44.5364C28.9024 44.2209 28.3121 43.8468 27.7611 43.4191C27.5234 43.2363 27.2231 43.1558 26.9262 43.1953C26.6294 43.2348 26.3603 43.3909 26.1782 43.6295C25.9961 43.868 25.9159 44.1694 25.9552 44.4673C25.9946 44.7652 26.1502 45.0352 26.3879 45.2179C27.0525 45.7308 27.7647 46.1786 28.5145 46.555C30.3718 47.4882 32.4202 47.9741 34.4973 47.974C35.1844 47.9738 35.8704 47.9215 36.5497 47.8176C39.3615 47.3986 41.9641 46.0822 43.9724 44.0634C46.4652 41.544 47.8604 38.1352 47.8521 34.5849C47.8438 31.0345 46.4325 27.6324 43.9279 25.1248ZM23.9161 39.7505L9.657 25.4377H18.5012L23.0885 20.8343V32.6258L30.2923 25.3967H38.2161L23.9161 39.7505ZM38.7617 23.136H29.357L25.3524 27.1621V15.3669L17.5585 23.1882H9.02234L23.8976 8.25333L38.7617 23.136Z" fill="white"/>
<path d="M62.1842 20.9497V12.4991H70.4012C70.5939 12.5108 70.787 12.4839 70.9692 12.4199C71.1514 12.356 71.3192 12.2563 71.4626 12.1266C71.7193 11.8612 71.8628 11.5058 71.8628 11.1359C71.8628 10.7661 71.7193 10.4107 71.4626 10.1453C71.3192 10.0156 71.1514 9.91591 70.9692 9.85196C70.787 9.78802 70.5939 9.76111 70.4012 9.77281H62.1842V2.75978H73.6375C74.0263 2.78011 74.4075 2.64636 74.699 2.38734C74.832 2.26335 74.9367 2.11193 75.0058 1.94349C75.075 1.77505 75.1071 1.59359 75.0998 1.41155C75.1073 1.22284 75.0755 1.03464 75.0065 0.85894C74.9375 0.683239 74.8327 0.523887 74.699 0.391061C74.4075 0.132046 74.0263 -0.00170612 73.6375 0.0186212H60.6959C60.5001 0.0130755 60.3052 0.0471573 60.1229 0.118823C59.9405 0.19049 59.7744 0.298282 59.6344 0.435763C59.4921 0.57533 59.3803 0.743114 59.3062 0.928431C59.2321 1.11375 59.1973 1.31253 59.2039 1.51211V20.9683C59.2039 21.3635 59.3603 21.7424 59.6387 22.0218C59.9172 22.3011 60.2948 22.4581 60.6885 22.4581C61.0822 22.4581 61.4598 22.3011 61.7382 22.0218C62.0166 21.7424 62.173 21.3635 62.173 20.9683L62.1842 20.9497Z" fill="white"/>
<path d="M80.3662 0.37219C79.9222 0.367211 79.4903 0.517202 79.1443 0.796493C78.7984 1.07578 78.5599 1.46702 78.4697 1.90329C78.3794 2.33955 78.443 2.79372 78.6496 3.1881C78.8562 3.58249 79.193 3.89258 79.6023 4.06533C80.0115 4.23808 80.4679 4.26275 80.8933 4.13513C81.3187 4.0075 81.6867 3.7355 81.9343 3.36567C82.1819 2.99585 82.2938 2.55117 82.2508 2.1077C82.2078 1.66424 82.0126 1.24955 81.6985 0.934578C81.5267 0.754245 81.3198 0.611268 81.0906 0.514526C80.8614 0.417784 80.6148 0.369338 80.3662 0.37219Z" fill="white"/>
<path d="M80.3662 6.72645C80.1744 6.72019 79.9833 6.75256 79.8042 6.82164C79.625 6.89073 79.4615 6.99514 79.3233 7.1287C79.1838 7.2666 79.0748 7.43232 79.0032 7.61516C78.9316 7.798 78.899 7.99388 78.9076 8.19014V20.9797C78.9116 21.2709 79.0006 21.5544 79.1636 21.7954C79.3265 22.0363 79.5562 22.2241 79.8243 22.3354C80.0924 22.4467 80.3872 22.4768 80.6721 22.4219C80.9571 22.3669 81.2197 22.2294 81.4276 22.0263C81.5607 21.8875 81.6648 21.7234 81.7336 21.5437C81.8024 21.3639 81.8347 21.1722 81.8284 20.9797V8.19014C81.8404 7.99448 81.8108 7.7985 81.7415 7.61522C81.6722 7.43193 81.5648 7.26555 81.4265 7.1271C81.2882 6.98866 81.1221 6.88133 80.9393 6.81226C80.7565 6.74318 80.5611 6.71393 80.3662 6.72645Z" fill="white"/>
<path d="M88.702 22.4432C88.8967 22.4582 89.0924 22.4328 89.2769 22.3688C89.4614 22.3047 89.6308 22.2033 89.7746 22.0708C90.0327 21.7783 90.166 21.3958 90.1457 21.0056V12.6145C90.1326 12.2123 90.2008 11.8115 90.3462 11.4364C90.4917 11.0613 90.7113 10.7196 90.992 10.432C91.6273 9.81962 92.4294 9.41005 93.2967 9.25513C94.386 9.04401 95.5072 9.06303 96.5887 9.31099C96.8146 9.36662 97.0493 9.37676 97.2791 9.3408C97.4862 9.30149 97.6787 9.20619 97.8358 9.06518C98.0107 8.9012 98.1267 8.68388 98.166 8.44693C98.2997 7.93297 98.0844 7.48604 97.5203 7.1136C96.9561 6.74116 96.1026 6.55122 94.9594 6.55122C94.0489 6.54053 93.1468 6.72658 92.3143 7.09674C91.4818 7.46689 90.7384 8.01249 90.1346 8.69647V8.16016C90.1626 7.96533 90.1449 7.76665 90.083 7.57988C90.0211 7.39311 89.9166 7.22341 89.7779 7.08422C89.6392 6.94504 89.4701 6.84022 89.284 6.77808C89.0979 6.71595 88.8999 6.6982 88.7057 6.72626C88.5126 6.70442 88.3171 6.72645 88.1337 6.79073C87.9502 6.85501 87.7835 6.95989 87.6459 7.0976C87.5084 7.23531 87.4034 7.40231 87.3389 7.58625C87.2743 7.77018 87.2519 7.96633 87.2732 8.16016V21.0056C87.258 21.2015 87.2831 21.3985 87.3469 21.5843C87.4107 21.7701 87.512 21.9408 87.6443 22.0857C87.9371 22.3384 88.3165 22.4666 88.702 22.4432Z" fill="white"/>
<path d="M106.884 22.5587C108.047 22.5955 109.204 22.3795 110.276 21.9255C111.109 21.5664 111.824 20.9791 112.34 20.2309C112.807 19.525 113.051 18.6944 113.041 17.8473C113.057 17.1334 112.867 16.4301 112.496 15.8212C112.046 15.1586 111.428 14.6278 110.707 14.283C109.632 13.7628 108.49 13.3955 107.315 13.1918C106.514 13.0449 105.728 12.8281 104.965 12.5438C104.542 12.4068 104.169 12.1477 103.893 11.7989C103.711 11.523 103.615 11.1987 103.618 10.8678C103.62 10.5927 103.704 10.3245 103.86 10.0985C104.017 9.87245 104.238 9.6992 104.494 9.60148C105.162 9.29587 105.891 9.14807 106.624 9.16945C107.273 9.15977 107.92 9.24765 108.543 9.43016C109.126 9.61907 109.656 9.94317 110.091 10.3762C110.385 10.6517 110.755 10.8321 111.152 10.8938C111.337 10.9367 111.53 10.9409 111.717 10.9063C111.904 10.8717 112.082 10.799 112.24 10.6927C112.379 10.5979 112.495 10.4726 112.58 10.3261C112.664 10.1797 112.714 10.0159 112.726 9.84729C112.731 9.66981 112.701 9.49306 112.637 9.32742C112.573 9.16177 112.477 9.01056 112.355 8.88268C111.733 8.14093 110.935 7.56835 110.035 7.21787C108.971 6.80023 107.837 6.59527 106.695 6.61452C105.739 6.6107 104.791 6.77066 103.889 7.08752C103.044 7.3699 102.285 7.86484 101.684 8.52514C101.099 9.19446 100.791 10.0633 100.823 10.9534C100.818 11.4904 100.933 12.0218 101.158 12.5088C101.383 12.9959 101.714 13.4264 102.126 13.7691C102.995 14.5363 104.394 15.1111 106.324 15.4935C107.808 15.7616 108.834 16.1068 109.4 16.5289C109.651 16.6874 109.858 16.9072 110.001 17.1678C110.143 17.4284 110.218 17.7212 110.217 18.0186C110.201 18.3116 110.11 18.5955 109.952 18.8424C109.794 19.0892 109.574 19.2905 109.315 19.4264C108.732 19.7989 107.886 19.9702 106.78 19.9702C105.959 19.9824 105.145 19.8212 104.39 19.4972C103.805 19.2686 103.273 18.9212 102.828 18.4767C102.578 18.1996 102.239 18.0213 101.87 17.9739C101.666 17.9542 101.46 17.9771 101.265 18.0412C101.07 18.1053 100.891 18.2092 100.738 18.3464C100.584 18.4595 100.454 18.6038 100.358 18.7698C100.263 18.9359 100.202 19.1202 100.181 19.311C100.159 19.5029 100.18 19.6975 100.245 19.8796C100.309 20.0617 100.414 20.2265 100.552 20.3613C101.313 21.0687 102.217 21.6024 103.202 21.9255C104.384 22.3496 105.63 22.5639 106.884 22.5587Z" fill="white"/>
<path d="M122.962 22.443C123.403 22.462 123.836 22.319 124.179 22.0408C124.331 21.9158 124.453 21.7576 124.536 21.5781C124.618 21.3987 124.659 21.2029 124.654 21.0054C124.664 20.6258 124.532 20.2561 124.283 19.97C124.176 19.8433 124.042 19.7417 123.891 19.6722C123.74 19.6028 123.577 19.5671 123.411 19.5678H122.438C122.138 19.5689 121.842 19.4995 121.573 19.365C121.304 19.2304 121.07 19.0346 120.891 18.7931C120.461 18.2461 120.237 17.564 120.26 16.8676V9.75401H122.694C123.051 9.77121 123.4 9.64827 123.667 9.41136C123.788 9.30309 123.883 9.16969 123.947 9.02045C124.012 8.87122 124.042 8.70975 124.038 8.54731C124.045 8.37628 124.016 8.20568 123.952 8.047C123.888 7.88833 123.791 7.74526 123.667 7.62738C123.399 7.39218 123.05 7.26949 122.694 7.28474H120.26V3.16183C120.254 2.87823 120.167 2.60231 120.008 2.36763C119.849 2.13295 119.626 1.94962 119.366 1.83993C119.105 1.73025 118.818 1.69894 118.54 1.7498C118.262 1.80067 118.004 1.93152 117.799 2.12645C117.665 2.26207 117.56 2.42404 117.491 2.60219C117.422 2.78035 117.391 2.97086 117.398 3.16183V7.29964H116.081C115.724 7.2842 115.374 7.40683 115.105 7.64227C114.981 7.76 114.884 7.90306 114.82 8.06177C114.755 8.22048 114.726 8.39114 114.734 8.5622C114.729 8.72464 114.76 8.88612 114.824 9.03535C114.888 9.18459 114.984 9.31799 115.105 9.42626C115.374 9.66306 115.723 9.7859 116.081 9.76891H117.395V16.8676C117.379 17.8556 117.605 18.8325 118.052 19.713C118.465 20.5279 119.087 21.2171 119.855 21.7093C120.625 22.2038 121.521 22.4626 122.435 22.4542L122.962 22.443Z" fill="white"/>
<path d="M76.9592 25.4411C76.764 25.4359 76.5698 25.4701 76.388 25.5418C76.2063 25.6134 76.0408 25.7211 75.9014 25.8582C75.7584 25.9973 75.6461 26.1649 75.5719 26.3504C75.4977 26.5358 75.4633 26.7349 75.4709 26.9346V35.1841H62.1842V26.9346C62.191 26.7363 62.1577 26.5387 62.0862 26.3537C62.0148 26.1687 61.9067 26.0001 61.7685 25.8582C61.4774 25.59 61.0967 25.4411 60.7015 25.4411C60.3063 25.4411 59.9255 25.59 59.6344 25.8582C59.4921 25.9978 59.3803 26.1656 59.3062 26.3509C59.2321 26.5362 59.1973 26.735 59.2039 26.9346V46.3908C59.2086 46.6869 59.2996 46.9751 59.4657 47.2198C59.6317 47.4645 59.8656 47.6551 60.1383 47.768C60.4111 47.8809 60.7108 47.9112 61.0005 47.855C61.2902 47.7989 61.5572 47.6589 61.7685 47.4523C61.9038 47.3114 62.0102 47.1452 62.0815 46.9631C62.1529 46.7809 62.1877 46.5865 62.1842 46.3908V37.8247H75.4561V46.3908C75.4561 46.7859 75.6125 47.1649 75.8909 47.4443C76.1693 47.7236 76.5469 47.8806 76.9406 47.8806C77.138 47.8885 77.3348 47.8541 77.5178 47.7796C77.7009 47.7051 77.866 47.5922 78.0021 47.4486C78.27 47.1617 78.4141 46.7801 78.4029 46.3871V26.9346C78.4104 26.7375 78.3789 26.5408 78.3101 26.3561C78.2412 26.1713 78.1366 26.0021 78.0021 25.8582C77.8661 25.7206 77.7033 25.6125 77.5239 25.5408C77.3445 25.469 77.1522 25.4351 76.9592 25.4411Z" fill="white"/>
<path d="M94.6292 33.043C93.4683 32.357 92.1382 32.0136 90.7916 32.0523C89.3883 32.024 88.0035 32.3766 86.7833 33.0727C85.629 33.7385 84.6819 34.7134 84.048 35.8884C83.3678 37.1642 83.0265 38.5944 83.0571 40.0411C83.03 41.4848 83.3916 42.9092 84.1037 44.164C84.7926 45.3503 85.7926 46.3242 86.9949 46.9796C88.2925 47.6769 89.7467 48.0283 91.2184 48.0001C92.1603 47.9886 93.0941 47.8238 93.9834 47.5122C94.8567 47.2333 95.6753 46.8048 96.4032 46.2459C96.5496 46.1499 96.6687 46.0175 96.7487 45.8614C96.8287 45.7054 96.867 45.5311 96.8597 45.3558C96.8431 45.1709 96.7891 44.9913 96.7011 44.828C96.613 44.6647 96.4927 44.5212 96.3475 44.4061C96.1033 44.1994 95.7909 44.0918 95.4717 44.1044C95.1348 44.1176 94.81 44.2332 94.5401 44.4359C94.0791 44.7583 93.5724 45.0094 93.037 45.1807C92.4539 45.3935 91.8388 45.5043 91.2184 45.5085C90.2084 45.5288 89.211 45.2808 88.3273 44.7897C87.6376 44.4023 87.0452 43.8621 86.595 43.2102C86.1448 42.5584 85.8487 41.812 85.7293 41.028H96.611C96.7856 41.0328 96.9594 41.0023 97.1219 40.9383C97.2845 40.8743 97.4326 40.7782 97.5575 40.6556C97.6787 40.539 97.7743 40.3983 97.8382 40.2424C97.9021 40.0866 97.9329 39.919 97.9286 39.7506C97.9565 38.3673 97.667 36.9962 97.0824 35.7431C96.542 34.624 95.6898 33.6861 94.6292 33.043ZM87.9969 35.2403C88.8434 34.7436 89.8114 34.4946 90.7916 34.5215C91.6234 34.4865 92.4466 34.7018 93.1556 35.1398C93.8645 35.5778 94.4268 36.2185 94.7702 36.9796C95.0337 37.5369 95.2066 38.1329 95.2824 38.745H85.7478C85.8406 38.2135 86.0055 37.6972 86.2377 37.2105C86.6212 36.3964 87.2325 35.7119 87.9969 35.2403Z" fill="white"/>
<path d="M112.756 33.0987C111.537 32.3928 110.15 32.0312 108.744 32.0521C107.333 32.0325 105.944 32.3939 104.72 33.0987C103.541 33.7858 102.563 34.7723 101.885 35.959C101.178 37.2063 100.818 38.6212 100.842 40.0559C100.818 41.4693 101.147 42.8662 101.8 44.1192C102.408 45.283 103.312 46.2647 104.42 46.9646C105.552 47.6518 106.849 48.0151 108.172 48.0151C109.495 48.0151 110.792 47.6518 111.924 46.9646C112.597 46.541 113.196 46.0101 113.698 45.3929V46.4618C113.693 46.6561 113.727 46.8494 113.798 47.03C113.87 47.2106 113.977 47.3746 114.114 47.512C114.251 47.6494 114.414 47.7573 114.594 47.8291C114.774 47.9008 114.967 47.9349 115.161 47.9292C115.354 47.9355 115.546 47.9017 115.725 47.8299C115.905 47.7581 116.068 47.6499 116.203 47.5121C116.341 47.3748 116.448 47.2108 116.52 47.0302C116.591 46.8495 116.625 46.6561 116.619 46.4618V40.0559C116.643 38.6212 116.283 37.2063 115.576 35.959C114.901 34.775 113.928 33.7889 112.756 33.0987ZM111.353 44.7076C110.564 45.1678 109.667 45.4102 108.755 45.4102C107.842 45.4102 106.946 45.1678 106.157 44.7076C105.387 44.2411 104.754 43.578 104.323 42.7858C103.882 41.9334 103.651 40.9868 103.651 40.0261C103.651 39.0654 103.882 38.1188 104.323 37.2663C104.754 36.473 105.387 35.8086 106.157 35.3408C106.946 34.8806 107.842 34.6382 108.755 34.6382C109.667 34.6382 110.564 34.8806 111.353 35.3408C112.113 35.811 112.736 36.4755 113.156 37.2663C113.588 38.1217 113.813 39.0672 113.813 40.0261C113.813 40.985 113.588 41.9304 113.156 42.7858C112.736 43.5756 112.113 44.2388 111.353 44.7076Z" fill="white"/>
<path d="M125.411 45.0093H124.695C124.476 45.0022 124.264 44.934 124.081 44.8122C123.899 44.6905 123.754 44.5202 123.663 44.3203C123.377 43.7829 123.239 43.1787 123.263 42.5699V26.8864C123.257 26.6028 123.17 26.3269 123.011 26.0922C122.852 25.8576 122.629 25.6742 122.368 25.5646C122.108 25.4549 121.821 25.4235 121.543 25.4744C121.265 25.5253 121.007 25.6561 120.802 25.8511C120.668 25.9867 120.563 26.1487 120.494 26.3268C120.425 26.505 120.393 26.6955 120.401 26.8864V42.5773C120.382 43.5196 120.566 44.455 120.943 45.3185C121.272 46.0717 121.796 46.7225 122.461 47.203C123.113 47.6615 123.892 47.9025 124.688 47.892H124.743C125.242 47.9148 125.735 47.7735 126.146 47.4898C126.316 47.3762 126.454 47.222 126.549 47.0413C126.645 46.8605 126.694 46.6589 126.692 46.4544C126.702 46.0747 126.57 45.705 126.321 45.419C126.207 45.2897 126.067 45.1862 125.91 45.1155C125.753 45.0449 125.583 45.0087 125.411 45.0093Z" fill="white"/>
<path d="M136.234 45.0091H135.261C134.961 45.0103 134.665 44.9408 134.396 44.8063C134.127 44.6717 133.893 44.4759 133.714 44.2344C133.285 43.687 133.062 43.0049 133.086 42.3089V35.2102H135.517C135.875 35.2272 136.225 35.1044 136.493 34.8676C136.614 34.7593 136.71 34.6259 136.774 34.4767C136.838 34.3274 136.869 34.166 136.865 34.0035C136.872 33.8324 136.843 33.6618 136.779 33.5031C136.715 33.3444 136.617 33.2013 136.493 33.0836C136.224 32.8482 135.874 32.7255 135.517 32.7409H133.086V28.6031C133.086 28.2219 132.935 27.8562 132.667 27.5866C132.398 27.317 132.034 27.1655 131.654 27.1655C131.274 27.1655 130.909 27.317 130.641 27.5866C130.372 27.8562 130.221 28.2219 130.221 28.6031V32.7409H128.9C128.544 32.7257 128.196 32.8484 127.928 33.0836C127.804 33.2015 127.707 33.3446 127.643 33.5032C127.579 33.6619 127.549 33.8325 127.556 34.0035C127.552 34.166 127.583 34.3274 127.647 34.4767C127.711 34.6259 127.807 34.7593 127.928 34.8676C128.195 35.1045 128.544 35.2274 128.9 35.2102H130.218V42.3089C130.202 43.2969 130.428 44.2738 130.874 45.1543C131.29 45.9687 131.914 46.6576 132.682 47.1506C133.45 47.6452 134.345 47.9041 135.258 47.8955H135.773C136.214 47.9144 136.647 47.7715 136.991 47.4933C137.143 47.3681 137.264 47.2097 137.346 47.0303C137.427 46.8509 137.467 46.6551 137.462 46.4579C137.473 46.0782 137.34 45.7084 137.091 45.4225C136.986 45.2961 136.855 45.1937 136.707 45.1224C136.559 45.0511 136.398 45.0124 136.234 45.0091Z" fill="white"/>
<path d="M154.835 35.3559C154.272 34.3049 153.416 33.4416 152.371 32.8717C151.282 32.2937 150.065 32.0015 148.834 32.0226C147.646 32.0054 146.473 32.2925 145.427 32.8568C144.892 33.1488 144.4 33.5135 143.965 33.9406V26.909C143.977 26.7133 143.948 26.5173 143.879 26.3338C143.81 26.1504 143.703 25.9837 143.565 25.8449C143.427 25.7061 143.262 25.5984 143.079 25.5288C142.896 25.4593 142.701 25.4295 142.506 25.4416C142.314 25.4356 142.122 25.4681 141.942 25.5372C141.763 25.6063 141.599 25.7105 141.459 25.8438C141.32 25.9827 141.211 26.1491 141.14 26.3325C141.068 26.5159 141.036 26.7122 141.044 26.909V46.4472C141.039 46.6413 141.073 46.8345 141.144 47.015C141.216 47.1955 141.323 47.3596 141.459 47.4974C141.596 47.635 141.76 47.743 141.94 47.8148C142.12 47.8865 142.312 47.9205 142.506 47.9146C142.702 47.9232 142.897 47.8905 143.079 47.8186C143.261 47.7468 143.426 47.6374 143.564 47.4974C143.697 47.3578 143.8 47.193 143.869 47.0127C143.938 46.8324 143.97 46.6402 143.965 46.4472V38.3429C143.958 37.6772 144.159 37.0261 144.54 36.4807C144.937 35.922 145.468 35.4725 146.084 35.1734C146.762 34.8421 147.508 34.675 148.262 34.6855C149.069 34.6701 149.868 34.8422 150.597 35.1883C151.278 35.5263 151.842 36.0623 152.215 36.7265C152.647 37.5476 152.855 38.4691 152.816 39.3969V46.4732C152.806 46.6719 152.837 46.8705 152.905 47.0571C152.974 47.2436 153.08 47.4141 153.217 47.5583C153.354 47.7024 153.518 47.8172 153.7 47.8957C153.882 47.9741 154.078 48.0145 154.277 48.0145C154.475 48.0145 154.671 47.9741 154.853 47.8957C155.035 47.8172 155.2 47.7024 155.336 47.5583C155.473 47.4141 155.579 47.2436 155.648 47.0571C155.717 46.8705 155.747 46.6719 155.737 46.4732V39.3969C155.785 37.9947 155.475 36.6035 154.835 35.3559Z" fill="white"/>
</g>
<defs>
<clipPath id="clip0_54_9515">
<rect width="155.733" height="48" fill="white"/>
</clipPath>
</defs>
</svg>
