<svg width="24" height="24" viewBox="0 0 24 24" fill="none" xmlns="http://www.w3.org/2000/svg">
<g clip-path="url(#clip0_11226_21)">
<path d="M12 20C16.4183 20 20 16.4183 20 12C20 7.58172 16.4183 4 12 4C7.58172 4 4 7.58172 4 12C4 16.4183 7.58172 20 12 20Z" stroke="#5525A5" stroke-width="2" stroke-linecap="round" stroke-linejoin="round"/>
<path d="M12 15C13.6569 15 15 13.6569 15 12C15 10.3431 13.6569 9 12 9C10.3431 9 9 10.3431 9 12C9 13.6569 10.3431 15 12 15Z" fill="#5525A5"/>
<path d="M12 23V20" stroke="#5525A5" stroke-width="2" stroke-linecap="round" stroke-linejoin="round"/>
<path d="M23 12H20" stroke="#5525A5" stroke-width="2" stroke-linecap="round" stroke-linejoin="round"/>
<path d="M3.5 12H1" stroke="#5525A5" stroke-width="2" stroke-linecap="round" stroke-linejoin="round"/>
<path d="M12 4V1" stroke="#5525A5" stroke-width="2" stroke-linecap="round" stroke-linejoin="round"/>
</g>
<defs>
<clipPath id="clip0_11226_21">
<rect width="24" height="24" fill="white"/>
</clipPath>
</defs>
</svg>
