<svg width="360" height="390" viewBox="0 0 360 390" fill="none" xmlns="http://www.w3.org/2000/svg">
<g clip-path="url(#clip0_9670_13918)">
<path opacity="0.18" d="M360.648 204.088C320.251 186.666 276.561 176.199 232.765 172.24C154.686 165.189 75.863 177.697 0.648438 199.945V279.346C23.6499 293.431 49.2703 303.066 76.047 306.307C140.19 314.19 204.333 286.608 268.748 291.942C287.142 293.466 305.186 297.653 323.51 299.825C335.834 301.257 348.249 301.755 360.648 301.314V204.088Z" fill="#CBBDE3"/>
<path opacity="0.18" d="M360.648 113.501C359.361 114.149 358.091 114.797 356.829 115.463C332.68 128.216 307.997 143.93 280.686 142.835C261.775 142.073 244.064 133.147 225.259 131.098C184.187 126.534 143.729 154.826 103.314 146.347C66.9549 138.674 42.4907 103.594 7.62058 90.8495C5.32569 89.9735 2.99576 89.2378 0.613281 88.5195V260.382C24.552 275.755 51.4775 286.222 79.6907 289.682C143.834 297.565 207.977 269.982 272.391 275.317C290.786 276.841 308.829 281.028 327.153 283.2C338.257 284.505 349.436 285.055 360.613 284.847L360.648 113.501Z" fill="#CBBDE3"/>
<path d="M288.745 105.398H61.2441V266.908H288.745V105.398Z" fill="#D0D5DD"/>
<path opacity="0.1" d="M271.779 118.484H78.2109V253.813H271.779V118.484Z" fill="#000001"/>
<path d="M233.142 181.541H223.866V253.821H233.142V181.541Z" fill="#D0D5DD"/>
<path opacity="0.05" d="M214.318 105.398H263.825L235.279 145.069H229.445L214.318 105.398Z" fill="#000001"/>
<path d="M134.809 151.725L128.809 158.799L176.813 199.524L182.814 192.45L134.809 151.725Z" fill="#D0D5DD"/>
<path d="M231.011 177.642L226.008 185.453L273.147 215.646L278.15 207.835L231.011 177.642Z" fill="#D0D5DD"/>
<path d="M169.332 254.303H160.056V213.608L188.943 176.907H223.866V133.523H233.133V186.183H193.445L169.332 216.823V254.303Z" fill="white"/>
<path d="M136.45 159.907H74.2256V150.631H127.174V113.939H136.45V159.907Z" fill="#D0D5DD"/>
<path d="M190.862 135.732H131.808V126.456H181.586V113.939H190.862V135.732Z" fill="#D0D5DD"/>
<path opacity="0.1" d="M135.547 193.025L149.457 200.164L140.523 217.682L149.457 221.44L126.604 266.917H84.8584L89.1766 227.624L95.7197 216.5L112.038 193.025H128.926H135.547Z" fill="#000001"/>
<path d="M90.7441 220.118L111.354 194.428L115.804 198.334L98.2332 227.695L90.7441 220.118Z" fill="#A992D1"/>
<path d="M56.6097 177.81L60.4112 189.215L51.3893 194.952L48.1309 175.174L56.6097 177.81Z" fill="#F4A28C"/>
<path d="M45.0388 164.147C45.5112 163.061 46.2476 162.11 47.181 161.382C48.1144 160.653 49.2152 160.169 50.3833 159.974C51.5514 159.779 52.7498 159.879 53.8693 160.265C54.9888 160.651 55.9941 161.311 56.7935 162.185C60.63 166.284 65.2724 172.81 60.0256 176.357C52.0023 181.788 44.6709 171.68 44.6709 171.68C44.0453 169.188 44.1734 166.566 45.0388 164.147Z" fill="#F4A28C"/>
<path d="M50.9079 171.146C50.9079 171.146 48.8495 169.394 47.9123 171.864C46.9751 174.334 50.6189 175.49 51.705 174.255C52.7911 173.02 50.9079 171.137 50.9079 171.137V171.146Z" fill="#F4A28C"/>
<path d="M40.8528 200.585C42.2139 197.561 44.2112 194.867 46.7084 192.686C49.2056 190.504 52.1439 188.887 55.3229 187.945C67.5856 184.258 90.1842 188.296 97.0688 199.77C106.494 215.484 92.6893 265.393 92.6893 265.393L51.4688 268.555C51.4688 268.555 28.7915 227.65 40.8528 200.585Z" fill="#A992D1"/>
<path d="M92.6893 265.359L87.2674 336.247H78.701L71.0455 281.17L52.082 268.565L92.6893 265.359Z" fill="#32128F"/>
<path d="M52.0817 268.564L40.2568 336.246H49.4452L69.3021 280.013L52.0817 268.564Z" fill="#5525A5"/>
<path opacity="0.08" d="M58.8874 186.842C58.8874 186.842 39.6173 248.953 95.2903 253.07L92.6626 265.332L51.4334 268.538C51.4334 268.538 36.937 245.747 37.5502 213.724C37.5502 213.724 37.9005 197.878 49.0509 190.88C52.0065 188.854 55.3597 187.48 58.8874 186.851V186.842Z" fill="#000001"/>
<path d="M42.4111 336.098L36.8754 340.171C36.6688 340.322 36.5155 340.536 36.4372 340.78C36.3588 341.024 36.3595 341.286 36.4391 341.53C36.5187 341.773 36.6731 341.986 36.8804 342.136C37.0877 342.287 37.3373 342.369 37.5936 342.369H46.8783C47.037 342.369 47.1942 342.338 47.3408 342.277C47.4875 342.216 47.6208 342.127 47.733 342.015C47.8452 341.903 47.9343 341.77 47.995 341.623C48.0558 341.476 48.087 341.319 48.087 341.16V336.098H42.4111Z" fill="#CBBDE3"/>
<path d="M86.1986 336.098L91.4541 340.171C91.6582 340.327 91.8078 340.545 91.8816 340.791C91.9555 341.038 91.9498 341.301 91.8655 341.545C91.7812 341.788 91.6225 341.998 91.4119 342.146C91.2013 342.294 90.9494 342.372 90.692 342.369H84.0876C83.1584 342.369 82.2672 342 81.6102 341.343C80.9531 340.686 80.584 339.795 80.584 338.866V336.115H86.2687L86.1986 336.098Z" fill="#CBBDE3"/>
<path d="M75.7049 187.586C73.6486 190.884 72.5586 194.692 72.5586 198.579C72.5586 202.465 73.6486 206.273 75.7049 209.571C80.1983 217.165 93.2757 231.942 102.228 241.709C103.236 242.813 104.493 243.663 105.894 244.187C107.295 244.711 108.801 244.896 110.287 244.725C111.773 244.554 113.198 244.032 114.443 243.203C115.689 242.374 116.719 241.262 117.451 239.957L136.642 206.068L130.117 201.89L112.528 227.738C112.528 227.738 100.484 188.12 75.7399 187.621L75.7049 187.586Z" fill="#CBBDE3"/>
<path d="M134.382 204.613C134.382 204.613 145.287 200.584 140.837 194.453C136.388 188.321 130.134 201.907 130.134 201.907L134.382 204.631V204.613Z" fill="#F4A28C"/>
<path d="M134.469 182.278L128.045 196.619L137.877 201.024L144.301 186.683L134.469 182.278Z" fill="#F06166"/>
<path d="M36.1487 201.198C42.4203 198.167 52.5633 194.383 62.4261 195.566C64.4343 195.807 66.3365 196.599 67.9226 197.855C69.5086 199.11 70.7166 200.779 71.413 202.678C74.0407 209.843 78.1312 222.929 77.9035 234.421C77.8749 236.641 77.1763 238.801 75.8994 240.617C74.6224 242.433 72.8266 243.821 70.7473 244.599C62.8331 247.451 54.5944 249.304 46.2217 250.118C43.6551 250.379 41.0778 249.734 38.9371 248.294C36.7964 246.854 35.2273 244.71 34.502 242.234C31.6489 232.178 30.1235 221.792 29.9648 211.341C29.9166 209.232 30.4755 207.154 31.575 205.354C32.6745 203.555 34.2682 202.109 36.1662 201.189L36.1487 201.198Z" fill="#5525A5"/>
<path d="M47.1767 217.394C48.923 217.394 50.3387 215.979 50.3387 214.232C50.3387 212.486 48.923 211.07 47.1767 211.07C45.4303 211.07 44.0146 212.486 44.0146 214.232C44.0146 215.979 45.4303 217.394 47.1767 217.394Z" fill="white"/>
<path d="M62.4521 195.557C62.4521 195.557 69.1266 185.212 77.0799 186.57C85.0332 187.928 85.5675 189.942 85.5675 189.942C85.5675 189.942 73.7251 190.056 69.3456 200.243L62.4521 195.557Z" fill="#5525A5"/>
<path d="M77.6143 227.581C77.6143 227.581 81.5734 232.302 95.2989 233.239L100.362 239.677C100.362 239.677 87.4683 242.839 75.5208 235.113C63.5734 227.388 77.6143 227.581 77.6143 227.581Z" fill="#5525A5"/>
<path d="M48.7357 178.81L42.6043 172.477C41.9708 171.822 41.479 171.044 41.1596 170.191C40.8401 169.338 40.6998 168.429 40.7473 167.519C40.8962 164.296 41.6232 159.172 44.251 155.318C48.4291 149.274 53.9999 146.997 55.3751 152.217C56.7503 157.437 57.0481 151.236 60.4116 154.013C63.7751 156.789 63.0919 158.392 60.4116 159.881C57.7313 161.37 52.1955 163.481 51.705 167.887C51.2145 172.293 55.3838 175.84 48.7357 178.801V178.81Z" fill="#F06166"/>
<path d="M112.388 195.33C112.388 195.33 113.754 185.905 122.899 186.825C132.043 187.745 128.688 190.057 125.001 190.232C124.252 190.393 123.559 190.75 122.994 191.267C122.429 191.785 122.012 192.443 121.786 193.175C121.252 194.822 119.763 196.968 115.83 198.326L112.388 195.33Z" fill="#F4A28C"/>
<path opacity="0.08" d="M228.499 168.849C241.275 168.849 251.632 165.488 251.632 161.343C251.632 157.197 241.275 153.836 228.499 153.836C215.723 153.836 205.366 157.197 205.366 161.343C205.366 165.488 215.723 168.849 228.499 168.849Z" fill="#000001"/>
<path d="M262.476 97.6645C262.475 92.4194 261.26 87.2458 258.926 82.5487C256.592 77.8516 253.203 73.7586 249.023 70.5904C244.843 67.4221 239.986 65.2647 234.833 64.2869C229.68 63.3092 224.37 63.5378 219.32 64.9548C214.27 66.3718 209.617 68.9387 205.724 72.4544C201.832 75.9702 198.807 80.3393 196.885 85.2196C194.963 90.0999 194.198 95.3589 194.648 100.585C195.098 105.81 196.752 110.861 199.48 115.34L228.508 162.92L257.413 115.621C260.759 110.249 262.528 104.045 262.52 97.717L262.476 97.6645ZM228.499 115.691C225.208 115.691 221.99 114.715 219.253 112.886C216.516 111.057 214.383 108.458 213.124 105.417C211.864 102.376 211.534 99.0299 212.177 95.8016C212.819 92.5734 214.404 89.608 216.731 87.2805C219.059 84.953 222.024 83.368 225.252 82.7258C228.481 82.0837 231.827 82.4133 234.868 83.6729C237.909 84.9325 240.508 87.0656 242.337 89.8024C244.165 92.5392 245.141 95.7569 245.141 99.0484C245.141 101.234 244.711 103.398 243.875 105.417C243.038 107.436 241.812 109.271 240.267 110.816C238.722 112.362 236.887 113.588 234.868 114.424C232.849 115.26 230.685 115.691 228.499 115.691Z" fill="#F06166"/>
<path opacity="0.05" d="M303.302 228.963H228.894V266.723H303.302V228.963Z" fill="#000001"/>
<path d="M330.053 228.963H238.643V284.837H330.053V228.963Z" fill="#D0D5DD"/>
<path d="M259.121 261.986C259.121 261.986 257.685 269.79 263.956 268.739C270.228 267.688 267.241 264.359 266.348 260.076L259.121 261.986Z" fill="white"/>
<path d="M258.394 258.393L265.638 256.738C265.638 256.738 265.936 250.922 265.594 245.123C265.253 239.325 259.524 234.507 255.714 238.431C251.904 242.355 253.384 250.265 258.394 258.393Z" fill="white"/>
<path d="M272.094 269.149C272.094 269.149 267.977 274.948 273.46 276.463C278.943 277.979 277.787 274.151 278.716 270.332L272.12 269.141L272.094 269.149Z" fill="white"/>
<path d="M272.864 265.944L279.381 267.346C279.381 267.346 281.816 262.747 283.761 257.895C285.705 253.042 282.885 246.981 278.277 248.724C273.67 250.467 271.91 257.483 272.882 265.944H272.864Z" fill="white"/>
<path opacity="0.67" d="M318.92 249.354H296.864V255.485H318.92V249.354Z" fill="white"/>
<path d="M318.92 260.268H296.864V266.399H318.92V260.268Z" fill="#B8C0CC"/>
<path opacity="0.58" d="M278.409 330.938C278.409 330.938 264.972 327.32 261.994 314.838C261.994 314.838 282.78 310.546 283.463 332.015L278.409 330.929V330.938Z" fill="#CBBDE3"/>
<path opacity="0.73" d="M280.047 329.588C280.047 329.588 270.605 314.802 278.803 300.91C278.803 300.91 294.657 310.887 287.711 329.588H280.047Z" fill="#CBBDE3"/>
<path d="M282.464 329.587C282.464 329.587 287.351 313.917 302.321 310.887C302.321 310.887 305.168 321.039 292.686 329.587H282.464Z" fill="#CBBDE3"/>
<path d="M272.732 329.281L275.527 347.886H292.668L295.112 329.281H272.732Z" fill="#A992D1"/>
</g>
<defs>
<clipPath id="clip0_9670_13918">
<rect width="360" height="389.781" fill="white"/>
</clipPath>
</defs>
</svg>
