<svg width="30" height="28" viewBox="0 0 30 28" fill="none" xmlns="http://www.w3.org/2000/svg">
<path d="M19.667 8.50033L24.3337 3.83366M27.0004 1.16699L24.3337 3.83366L27.0004 1.16699ZM14.187 13.9803C14.8755 14.6596 15.4228 15.4684 15.7974 16.36C16.172 17.2517 16.3665 18.2087 16.3697 19.1758C16.373 20.143 16.1849 21.1012 15.8163 21.9954C15.4476 22.8896 14.9058 23.702 14.2219 24.3859C13.538 25.0697 12.7256 25.6116 11.8314 25.9802C10.9373 26.3488 9.97903 26.5369 9.01188 26.5337C8.04472 26.5305 7.08776 26.3359 6.19609 25.9613C5.30442 25.5867 4.49565 25.0394 3.81637 24.351C2.48054 22.9679 1.74138 21.1155 1.75809 19.1927C1.7748 17.2699 2.54604 15.4306 3.9057 14.071C5.26536 12.7113 7.10465 11.9401 9.02742 11.9234C10.9502 11.9067 12.8026 12.6458 14.1857 13.9817L14.187 13.9803ZM14.187 13.9803L19.667 8.50033L14.187 13.9803ZM19.667 8.50033L23.667 12.5003L28.3337 7.83366L24.3337 3.83366L19.667 8.50033Z" stroke="#5525A5" stroke-width="2" stroke-linecap="round" stroke-linejoin="round"/>
</svg>
