<svg width="32" height="32" viewBox="0 0 32 32" fill="none" xmlns="http://www.w3.org/2000/svg">
<rect width="32" height="32" rx="16" fill="#EBE4F4"/>
<g clip-path="url(#clip0_7472_14912)">
<path d="M22.6669 19.2807V21.2807C22.6677 21.4664 22.6297 21.6502 22.5553 21.8203C22.4809 21.9904 22.3718 22.1431 22.235 22.2686C22.0982 22.3941 21.9367 22.4897 21.7608 22.5492C21.5849 22.6087 21.3985 22.6308 21.2136 22.614C19.1622 22.3911 17.1916 21.6901 15.4603 20.5674C13.8495 19.5438 12.4838 18.1782 11.4603 16.5674C10.3336 14.8282 9.63244 12.848 9.41361 10.7874C9.39695 10.603 9.41886 10.4172 9.47795 10.2418C9.53703 10.0664 9.63199 9.90518 9.75679 9.76846C9.88159 9.63175 10.0335 9.52252 10.2028 9.44773C10.3721 9.37294 10.5552 9.33422 10.7403 9.33405H12.7403C13.0638 9.33086 13.3775 9.44543 13.6228 9.6564C13.8681 9.86737 14.0283 10.1603 14.0736 10.4807C14.158 11.1208 14.3146 11.7492 14.5403 12.354C14.63 12.5927 14.6494 12.852 14.5962 13.1013C14.543 13.3506 14.4195 13.5795 14.2403 13.7607L13.3936 14.6074C14.3427 16.2764 15.7246 17.6583 17.3936 18.6074L18.2403 17.7607C18.4215 17.5815 18.6504 17.4579 18.8997 17.4048C19.149 17.3516 19.4083 17.371 19.6469 17.4607C20.2518 17.6864 20.8802 17.843 21.5203 17.9274C21.8441 17.9731 22.1399 18.1362 22.3513 18.3857C22.5627 18.6352 22.6751 18.9538 22.6669 19.2807Z" stroke="#5525A5" stroke-linecap="round" stroke-linejoin="round"/>
</g>
<defs>
<clipPath id="clip0_7472_14912">
<rect width="16" height="16" fill="white" transform="translate(8 8)"/>
</clipPath>
</defs>
</svg>
