<svg width="16" height="16" viewBox="0 0 16 16" fill="none" xmlns="http://www.w3.org/2000/svg">
<path d="M13.6625 2.32605C12.9258 1.58555 12.0483 0.998498 11.0813 0.599147C10.1143 0.199796 9.07705 -0.00386081 8.03013 5.54249e-05C3.64339 5.54249e-05 0.0683074 3.55804 0.0642893 7.92603C0.0642893 9.32502 0.431944 10.686 1.12607 11.891L0 16L4.223 14.898C5.39074 15.5322 6.6999 15.8641 8.03013 15.863H8.03415C12.4219 15.863 15.996 12.305 16 7.93303C16.0009 6.89109 15.7947 5.85927 15.3934 4.89698C14.992 3.93469 14.4044 3.06094 13.6625 2.32605ZM8.03013 14.521C6.84397 14.5201 5.67978 14.2024 4.65896 13.601L4.41788 13.457L1.91261 14.111L2.58162 11.678L2.42491 11.427C1.76173 10.3773 1.411 9.16205 1.41336 7.92203C1.41336 4.29604 4.38373 1.33805 8.03415 1.33805C8.90381 1.3365 9.76517 1.50632 10.5686 1.83774C11.372 2.16916 12.1016 2.65561 12.7152 3.26904C13.3309 3.88019 13.819 4.60658 14.1514 5.40636C14.4838 6.20614 14.6539 7.0635 14.6519 7.92903C14.6479 11.568 11.6775 14.521 8.03013 14.521ZM11.6615 9.58702C11.4636 9.48802 10.4862 9.00902 10.3024 8.94102C10.1195 8.87602 9.98594 8.84202 9.85535 9.04002C9.72175 9.23702 9.34003 9.68602 9.22551 9.81502C9.111 9.94802 8.99246 9.96302 8.79357 9.86502C8.59568 9.76502 7.95379 9.55702 7.19437 8.88002C6.60171 8.35503 6.20492 7.70503 6.08639 7.50803C5.97187 7.31003 6.07534 7.20403 6.17479 7.10503C6.26218 7.01703 6.37268 6.87303 6.47212 6.75903C6.57258 6.64503 6.60572 6.56103 6.67102 6.42903C6.73631 6.29503 6.70517 6.18103 6.65595 6.08203C6.60572 5.98303 6.20894 5.00604 6.04118 4.61204C5.88046 4.22304 5.71672 4.27704 5.59417 4.27204C5.47966 4.26504 5.34606 4.26504 5.21246 4.26504C5.11158 4.2676 5.01231 4.29085 4.92088 4.33335C4.82944 4.37586 4.7478 4.43669 4.68106 4.51204C4.49824 4.71004 3.98694 5.18904 3.98694 6.16603C3.98694 7.14303 4.70015 8.08203 4.8006 8.21503C4.89904 8.34803 6.2009 10.347 8.19889 11.207C8.67102 11.412 9.04269 11.533 9.333 11.625C9.81014 11.777 10.2411 11.754 10.5846 11.705C10.9663 11.647 11.7609 11.225 11.9287 10.762C12.0934 10.298 12.0934 9.90202 12.0432 9.81902C11.994 9.73502 11.8604 9.68602 11.6615 9.58702Z" fill="white"/>
</svg>
