<?xml version="1.0" encoding="UTF-8"?>
<svg version="1.1" viewBox="0 0 2048 465" width="1280" height="1280" xmlns="http://www.w3.org/2000/svg">
<path transform="translate(114,107)" d="m0 0h157l22 3 19 5 17 7 14 8 10 8 11 11 9 14 7 17 5 23 1 8v101h-299l1 34 4 16 4 6 7 6 11 5 10 2 254 1v8l-9 64-1 3h-250l-19-2-19-4-17-6-16-8-12-9-10-9-10-14-6-13-5-15-3-17-1-9v-138l3-21 4-15 7-16 7-11 11-12 12-9 12-7 17-7 24-6zm16 75-16 2-12 5-6 5-6 11-3 14v39h212v-36l-3-15-6-11-9-8-10-4-15-2z" fill="#5B5B5B"/>
<path transform="translate(460,107)" d="m0 0h88l1 236 4 16 5 9 9 8 11 4 6 1h122l9-2 11-6 7-8 6-12 2-7 1-239h87v350h-9l-16-4-11-6-9-8-8-11-5-13-1-4v-8h-2l-1 5-7 14-11 12-7 6-17 9-18 5-12 2-12 1h-106l-21-2-22-5-16-6-16-9-12-11-9-12-8-15-6-18-4-19-2-17-1-19z" fill="#5C5C5C"/>
<path transform="translate(1019,107)" d="m0 0h179l20 4 16 7 12 7 11 9 8 10 10 17-1 5-26 26-7 8-12 12-4-4-7-10-8-8-8-4-8-2-10-1h-149l-14 2-12 5-8 7-6 12-2 9v127l3 13 6 10 8 6 8 4 12 3h163l12-3 8-4 7-6 7-10 3-5 4 2 45 45-2 7-11 16-11 12-15 10-14 6-13 4-14 2h-176l-19-2-19-4-15-5-16-8-13-9-11-10-8-11-8-16-5-15-3-16-1-9v-140l3-21 6-20 9-17 8-10 9-9 14-9 16-8 15-5 17-4z" fill="#5B5B5B"/>
<path transform="translate(1836,3)" d="m0 0h28l19 3 18 5 21 10 4 3h25l17 5 13 8 7 6 9 12 5 10 4 15v18l-3 12-4 10-3 5 1 10 4 24 1 14v29l-2 23-6 31-8 26-8 19-9 19-8 11-9 8-5 2 11 7 6 5 13-11 11-13 9-15 8-18 5-17 3-17 1-9v-43l-3-26-4-21 1-9 5-4 2-1h10l6 4 3 5 5 21 6 35 3 34v28l-2 22-3 18-6 22-8 19-8 15-12 16-16 16-12 9-6 16-7 11-11 11-14 8-11 4-5 1h-21l-15-4-11-6-10-8-7-8-3-4-23-5-27-9-20-9-19-10-21-14-14-11-14-12-16-16-9-11-9-12-5-12v-10l4-6 4-2h9l7 4 5 6 7 12 9 11 7 7 13 10 15 9 16 8 21 8 18 5 20 4 7 1h8l6-14 9-12 9-8 14-8 15-4h21l7 1-2-4v-10l3-6 8-11 8-16 5-15 4-22 1-11v-24l-3-25-4-20-5-16h-13l-16-3-16-8-9-7-9-10-8-16-3-12v-20l3-12 1-3-15-7-13-4-17-3h-29l-23 4-25 8-18 8-23 12-19 12-11 8-9 1-5-3-4-6v-11l5-6 19-14 26-17 25-14 26-12 17-6 16-5 24-5z" fill="#FBBA00"/>
<path transform="translate(1434,1)" d="m0 0h3v106h73l-2 16-8 48h-63l1 144 3 20 4 15 5 12 8 11 11 8 12 4 5 1h29l16-4 6-2-1 11-10 57-1 5-8 4-13 4-21 3h-21l-18-2-19-5-19-9-13-10-8-8-9-13-9-17-7-19-6-25-3-22-1-12-1-150-38-1 1-11 8-49 1-4 28-1 1-77 8-3 40-13z" fill="#5B5B5B"/>
<path transform="translate(1803,60)" d="m0 0h19l9 3 6 7v8l-3 5-6 5-3 1-27 2-15 4-13 5-16 8-16 10-11 9-14 12-8 8-18 22-3 5 2 4 7 10 5 11 3 11v22l-3 12-8 15-11 12-10 7-11 5-6 1 5 21 6 15 9 16 11 14 17 17 18 13 13 8 21 11 19 8 25 9 6 3 3 4v8l-4 7-6 4h-8l-29-9-29-11-20-9-21-11-16-10-14-10-13-11-9-8-7-8-10-12-11-18-8-17-5-17-3-21-8-8-8-13-5-16-1-15 3-17 8-16 7-9 10-9 16-8 12-3 7-1 14-15 15-15 14-11 15-11 24-14 21-10 18-7 24-7z" fill="#B2B3B3"/>
<path transform="translate(1933,30)" d="m0 0h15l15 4 11 6 10 9 6 7 6 12 3 10 1 7v9l-3 14-8 16-9 10-14 9-11 4-5 1h-19l-12-3-13-7-11-10-9-14-4-12-1-6v-13l2-10 5-12 6-9 6-7 10-7 10-5z" fill="#FBBA00"/>
<path transform="translate(1908,340)" d="m0 0h16l15 4 11 6 10 9 7 9 5 10 3 11v20l-4 13-5 10-9 10-8 7-15 7-10 2h-16l-15-4-12-7-11-10-8-13-4-12-1-5v-16l3-12 6-12 8-10 10-8 12-6z" fill="#00A0E3"/>
<path transform="translate(1630,162)" d="m0 0h12l16 4 13 7 10 9 9 14 4 12 1 6v14l-4 16-6 11-11 12-13 8-12 4-5 1h-16l-15-4-11-6-12-11-7-11-4-10-2-9v-16l4-15 6-11 10-11 14-9 13-4z" fill="#B2B3B3"/>
<path transform="translate(1836,3)" d="m0 0h28l19 3 18 5 21 10 4 3v2l-12 4-11 6-10 9-6 7-7 12-19-8-15-4-12-2h-29l-23 4-25 8-18 8-23 12-19 12-11 8-9 1-5-3-4-6v-11l5-6 19-14 26-17 25-14 26-12 17-6 16-5 24-5z" fill="#FBBA00"/>
<path transform="translate(2015,149)" d="m0 0h10l6 4 3 5 5 21 6 35 3 34v28l-2 22-3 18-6 22-8 19-8 15-12 16-16 16-11 8h-1v-18l-3-15-5-12-8-11v-4l11-9 9-10 10-15 9-19 6-20 3-17 1-9v-43l-3-26-4-21 1-9 5-4z" fill="#00A0E3"/>
<path transform="translate(1593,271)" d="m0 0 11 7 12 5 16 3 20-1 5 20 6 15 9 16 11 14 17 17 18 13 13 8 21 11 19 8 25 9 6 3 3 4v8l-4 7-6 4h-8l-29-9-29-11-20-9-21-11-16-10-14-10-13-11-9-8-7-8-10-12-11-18-8-17-5-17-2-11z" fill="#B2B3B3"/>
<path transform="translate(1691,295)" d="m0 0h9l7 4 5 6 7 12 9 11 7 7 13 10 15 9 16 8 21 8 18 5 20 4 15 2-1 8v20l3 12 5 12-10-1-23-6-22-8-27-13-18-11-14-10-16-13-12-11-12-12-9-11-9-12-5-12v-10l4-6z" fill="#00A0E3"/>
<path transform="translate(1633,155)" d="m0 0 18 2 12 4 11 6 12 11 7 10 5 11 3 11v22l-3 12-8 15-11 12-10 7-11 5-10 3-16 1-16-3-12-5-11-8-9-9-8-13-5-16-1-15 3-17 8-16 7-9 10-9 16-8 12-3zm-3 7-14 3-12 6-10 8-7 8-7 14-3 12v16l4 15 6 11 11 12 11 7 10 4 9 2h16l15-4 12-7 10-9 7-10 5-12 2-10v-14l-3-13-6-12-8-10-10-8-12-6-14-3z" fill="#FEFEFE"/>
<path transform="translate(1929,24)" d="m0 0h22l17 5 13 8 7 6 9 12 5 10 4 15v18l-3 12-4 10-4 7h-2l-2 4-10 10-13 8-12 4-11 2h-9l-16-3-16-8-9-7-9-10-8-16-3-12v-20l3-12 8-15 9-10 8-7 16-8zm4 6-15 4-13 7-9 8-7 10-5 11-2 6-1 7v13l3 13 6 12 8 10 8 7 16 8 9 2h19l14-4 12-7 9-8 7-10 5-11 3-14v-9l-3-14-5-12-7-9-8-8-14-8-15-4z" fill="#FEFEFE"/>
<path transform="translate(1906,334)" d="m0 0h21l11 3 9 4 11 7 10 10 8 13 4 11 2 12v10l-2 12-6 15-8 11-9 9-14 8-11 4-5 1h-21l-15-4-11-6-10-8-7-8-6-10-5-14-1-5v-20l3-12 7-14 8-10 8-7 14-8zm2 6-15 4-12 7-10 9-9 14-4 12-1 5v16l3 12 6 12 7 9 9 8 14 7 12 3h16l13-3 13-7 10-9 6-7 6-12 3-11v-20l-4-13-5-10-11-12-10-7-12-5-9-2z" fill="#FBFBFB"/>
</svg>
